HIERARCHY
ROOT Hips
{
	OFFSET 0.000000 0.000000 0.000000
	CHANNELS 6 Xposition Yposition Zposition Zrotation Yrotation Xrotation 
	JOINT LHipJoint
	{
		OFFSET 0.000000 0.000000 0.000000
		CHANNELS 3 Zrotation Yrotation Xrotation
		JOINT LeftUpLeg
		{
			OFFSET 1.363060 -1.794630 0.839290
			CHANNELS 3 Zrotation Yrotation Xrotation
			JOINT LeftLeg
			{
				OFFSET 2.448110 -6.726130 0.000000
				CHANNELS 3 Zrotation Yrotation Xrotation
				JOINT LeftFoot
				{
					OFFSET 2.562200 -7.039590 0.000000
					CHANNELS 3 Zrotation Yrotation Xrotation
					JOINT LeftToeBase
					{
						OFFSET 0.157640 -0.433110 2.322550
						CHANNELS 3 Zrotation Yrotation Xrotation
						End Site
						{
							OFFSET 0.000000 0.000000 0.000000
						}
					}
				}
			}
		}
	}
	JOINT RHipJoint
	{
		OFFSET 0.000000 0.000000 0.000000
		CHANNELS 3 Zrotation Yrotation Xrotation
		JOINT RightUpLeg
		{
			OFFSET -1.305520 -1.794630 0.839290
			CHANNELS 3 Zrotation Yrotation Xrotation
			JOINT RightLeg
			{
				OFFSET -2.542530 -6.985550 0.000000
				CHANNELS 3 Zrotation Yrotation Xrotation
				JOINT RightFoot
				{
					OFFSET -2.568260 -7.056230 0.000000
					CHANNELS 3 Zrotation Yrotation Xrotation
					JOINT RightToeBase
					{
						OFFSET -0.164730 -0.452590 2.363150
						CHANNELS 3 Zrotation Yrotation Xrotation
						End Site
						{
							OFFSET 0.000000 0.000000 0.000000
						}
					}
				}
			}
		}
	}
	JOINT LowerBack
	{
		OFFSET 0.000000 0.000000 0.000000
		CHANNELS 3 Zrotation Yrotation Xrotation
		JOINT Spine
		{
			OFFSET 0.028270 2.035590 -0.193380
			CHANNELS 3 Zrotation Yrotation Xrotation
			JOINT Spine1
			{
				OFFSET 0.056720 2.048850 -0.042750
				CHANNELS 3 Zrotation Yrotation Xrotation
				JOINT Neck
				{
					OFFSET 0.000000 0.000000 0.000000
					CHANNELS 3 Zrotation Yrotation Xrotation
					JOINT Neck1
					{
						OFFSET -0.054170 1.746240 0.172020
						CHANNELS 3 Zrotation Yrotation Xrotation
						JOINT Head
						{
							OFFSET 0.104070 1.761360 -0.123970
							CHANNELS 3 Zrotation Yrotation Xrotation
							End Site
							{
								OFFSET 0.000000 0.000000 0.000000
							}
						}
					}
				}
				JOINT LeftShoulder
				{
					OFFSET 0.000000 0.000000 0.000000
					CHANNELS 3 Zrotation Yrotation Xrotation
					JOINT LeftArm
					{
						OFFSET 3.362410 1.200890 -0.311210
						CHANNELS 3 Zrotation Yrotation Xrotation
						JOINT LeftForeArm
						{
							OFFSET 4.983000 -0.000000 -0.000000
							CHANNELS 3 Zrotation Yrotation Xrotation
							JOINT LeftHand
							{
								OFFSET 3.483560 -0.000000 -0.000000
								CHANNELS 3 Zrotation Yrotation Xrotation
								JOINT LeftFingerBase
								{
									OFFSET 0.000000 0.000000 0.000000
									CHANNELS 3 Zrotation Yrotation Xrotation
									JOINT LeftHandIndex1
									{
										OFFSET 0.715260 -0.000000 -0.000000
										CHANNELS 3 Zrotation Yrotation Xrotation
										End Site
										{
											OFFSET 0.000000 0.000000 0.000000
										}
									}
								}
								JOINT LThumb
								{
									OFFSET 0.000000 0.000000 0.000000
									CHANNELS 3 Zrotation Yrotation Xrotation
									End Site
									{
										OFFSET 0.000000 0.000000 0.000000
									}
								}
							}
						}
					}
				}
				JOINT RightShoulder
				{
					OFFSET 0.000000 0.000000 0.000000
					CHANNELS 3 Zrotation Yrotation Xrotation
					JOINT RightArm
					{
						OFFSET -3.136600 1.374050 -0.404650
						CHANNELS 3 Zrotation Yrotation Xrotation
						JOINT RightForeArm
						{
							OFFSET -5.241900 -0.000000 -0.000000
							CHANNELS 3 Zrotation Yrotation Xrotation
							JOINT RightHand
							{
								OFFSET -3.444170 -0.000000 -0.000000
								CHANNELS 3 Zrotation Yrotation Xrotation
								JOINT RightFingerBase
								{
									OFFSET 0.000000 0.000000 0.000000
									CHANNELS 3 Zrotation Yrotation Xrotation
									JOINT RightHandIndex1
									{
										OFFSET -0.622530 -0.000000 -0.000000
										CHANNELS 3 Zrotation Yrotation Xrotation
										End Site
										{
											OFFSET 0.000000 0.000000 0.000000
										}
									}
								}
								JOINT RThumb
								{
									OFFSET 0.000000 0.000000 0.000000
									CHANNELS 3 Zrotation Yrotation Xrotation
									End Site
									{
										OFFSET 0.000000 0.000000 0.000000
									}
								}
							}
						}
					}
				}
			}
		}
	}
}
MOTION
Frames: 4
Frame Time: 0.008333
2.978259 17.246116 2.554135 106.645763 -89.472049 -84.824413 -13.406449 5.768924 3.263830 -5.597683 7.884719 -1.714692 -0.833810 0.509887 11.081097 0.443668 -3.883643 24.197168 -2.076700 -0.000000 -75.374901 6.739052 -3.140224 3.898629 18.653960 -3.665683 -41.920018 5.385030 -0.139921 14.615600 1.641723 9.437823 -0.592549 0.917300 -0.000000 -62.714000 8.566747 -4.405946 -8.424354 1.536343 -5.376590 -4.666041 -5.970645 -5.518750 -0.315479 9.429925 -10.857578 -6.808353 -3.642943 -0.286113 0.269899 0.000000 0.000000 0.000000 5.350539 1.030889 0.181217 -64.357253 -17.462071 20.946677 179.909640 -86.329297 179.948801 6.070700 -0.070278 -0.030380 -0.164144 0.559831 -0.000000 0.000000 0.000000 0.000000 0.000000 0.000000 0.000000 12.708453 -8.623739 1.318465 56.592785 13.683787 -12.751135 0.664828 70.447126 -0.008530 -2.896370 4.910506 -0.134827 0.070461 -0.323863 0.000000 0.000000 0.000000 0.000000 0.000000 0.000000 0.000000 
2.724120 17.169783 2.524779 88.610650 -89.397118 -67.013501 -13.147290 5.774290 3.123216 -5.557991 8.463299 -1.122387 -0.767786 0.535952 11.900982 0.462871 -4.221040 25.034427 -2.303800 0.000000 -74.818200 6.944534 -3.216463 4.111393 18.243120 -2.807530 -42.261978 5.160479 -0.358571 16.190146 1.410313 8.478808 -1.915099 0.672799 -0.000000 -58.922899 8.864631 -4.533990 -8.492412 1.609926 -5.535919 -4.676168 -6.004750 -5.676305 -0.313388 9.045396 -10.702055 -6.805498 -3.727432 -0.292492 0.269441 0.000000 0.000000 0.000000 5.375364 0.959073 0.240833 -63.055677 -17.960179 20.537593 179.992534 -84.814277 179.948919 5.953846 -0.098017 -0.031854 -0.168081 0.572899 -0.000000 0.000000 0.000000 0.000000 0.000000 0.000000 0.000000 12.682420 -8.562312 1.352788 56.452896 13.611153 -13.628565 0.659062 69.774626 -0.011382 -3.418515 4.711157 -0.152646 0.073105 -0.321241 0.000000 0.000000 0.000000 0.000000 0.000000 0.000000 0.000000 
2.478232 17.086968 2.489794 -157.750985 -87.914149 179.159476 -12.083071 6.263769 2.731031 -5.690259 9.936273 -0.400674 -0.993975 0.727849 12.396084 0.567250 -4.401501 26.006675 -2.527000 -0.000000 -73.682700 8.069976 -2.476847 4.284520 17.712728 -0.621289 -42.348755 4.649552 -0.579632 18.950126 1.127341 7.418582 -3.548259 0.421000 -0.000000 -54.331400 10.075931 -3.939092 -8.185491 1.715733 -5.035017 -4.621583 -6.142805 -5.116370 -0.342257 8.699519 -10.505028 -6.822226 -3.816368 -0.298189 0.257311 0.000000 0.000000 0.000000 5.446369 1.289644 0.234332 -61.657296 -18.362026 19.953508 -179.927388 -83.378740 179.948850 5.896267 -0.243868 -0.039779 -0.168290 0.582872 -0.000000 0.000000 0.000000 0.000000 0.000000 0.000000 0.000000 12.700632 -8.081062 1.469692 56.382037 13.687485 -14.441030 0.674061 69.101542 -0.014259 -3.962794 4.554517 -0.171250 0.078017 -0.321520 0.000000 0.000000 0.000000 0.000000 0.000000 0.000000 0.000000 
2.229845 17.005985 2.460389 -170.046015 -87.128534 -168.750153 -12.244805 6.543941 2.641698 -5.824715 10.558850 -0.127098 -0.999261 0.859351 13.525505 0.675628 -4.698820 26.911974 -2.809300 0.000000 -72.311700 8.031868 -2.189418 4.274028 16.998118 0.497034 -42.748890 4.237139 -0.823359 22.332312 0.856748 6.535915 -5.597721 0.218700 -0.000001 -49.055200 10.007043 -3.826081 -8.103232 1.662844 -4.902046 -4.603925 -6.200904 -4.977207 -0.336491 8.335874 -10.273896 -6.842257 -3.906230 -0.304047 0.245881 0.000000 0.000000 0.000000 5.346496 1.467263 0.287301 -60.188798 -18.837337 19.409834 -179.859126 -82.116901 179.948123 5.911105 -0.514051 -0.055024 -0.173718 0.597739 -0.000000 0.000000 0.000000 0.000000 0.000000 0.000000 0.000000 12.730378 -7.795649 1.521170 56.305512 13.695606 -15.283227 0.668985 68.482696 -0.017377 -4.547357 4.457048 -0.192355 0.081234 -0.321028 0.000000 0.000000 0.000000 0.000000 0.000000 0.000000 0.000000 
